<?xml version="1.0" standalone="no"?>
<!DOCTYPE svg PUBLIC "-//W3C//DTD SVG 20010904//EN"
 "http://www.w3.org/TR/2001/REC-SVG-20010904/DTD/svg10.dtd">
<svg version="1.0" xmlns="http://www.w3.org/2000/svg"
 width="500.000000pt" height="500.000000pt" viewBox="0 0 500.000000 500.000000"
 preserveAspectRatio="xMidYMid meet">

<g transform="translate(0.000000,500.000000) scale(0.100000,-0.100000)"
fill="#000000" stroke="none">
<path d="M1793 4680 c-58 -12 -97 -34 -145 -82 -60 -60 -80 -114 -87 -238 l-6
-105 -360 -5 c-258 -4 -366 -8 -381 -17 -34 -20 -72 -70 -84 -111 -15 -56 -13
-544 4 -613 15 -64 51 -132 90 -168 l26 -24 0 -414 0 -413 -351 0 c-247 0
-357 -3 -372 -12 -45 -24 -48 -35 -42 -166 40 -826 554 -1545 1323 -1851 479
-191 1021 -196 1507 -14 103 38 298 137 395 200 294 191 541 457 705 758 60
110 136 287 165 386 12 41 23 75 24 76 1 2 40 10 87 18 46 9 92 18 102 21 41
12 47 58 47 347 l0 274 95 27 c52 14 97 26 100 26 3 0 5 -98 5 -217 l0 -218
-50 -28 c-81 -46 -80 -42 -80 -290 l0 -218 25 -24 c33 -34 64 -31 124 10 28
19 53 35 56 35 3 0 28 -16 56 -35 60 -41 91 -44 124 -10 l25 24 0 219 c0 249
0 248 -84 293 l-46 24 0 277 c0 273 0 277 -22 303 -19 20 -56 34 -193 71 -967
258 -958 256 -1012 249 l-53 -6 0 139 0 140 37 44 c76 90 78 99 81 418 2 157
1 304 -3 328 -6 44 -47 101 -89 125 -15 8 -126 13 -381 17 l-360 5 -6 110 c-4
92 -10 118 -31 161 -31 59 -83 108 -147 138 -44 20 -63 21 -411 23 -201 1
-384 -2 -407 -7z m655 -386 l-3 -39 -250 -3 c-137 -1 -259 0 -271 3 -17 4 -21
12 -19 42 l1 38 265 5 c145 3 268 2 272 -1 5 -4 7 -24 5 -45z m-1068 -359 c6
-177 12 -198 74 -253 20 -17 52 -36 73 -41 25 -7 256 -11 659 -11 l620 0 51
25 c54 27 97 78 113 136 6 19 10 96 10 172 l0 137 243 -2 242 -3 3 -265 c2
-146 0 -279 -3 -297 -8 -45 -92 -133 -162 -170 -125 -67 -345 -119 -621 -147
-84 -9 -161 -16 -171 -16 -12 0 -29 16 -44 43 -33 56 -97 114 -156 140 -70 31
-172 34 -244 7 -76 -29 -147 -86 -177 -144 l-25 -48 -80 7 c-247 19 -492 63
-630 112 -122 44 -221 121 -256 198 -17 36 -19 70 -19 307 0 204 3 267 13 271
6 3 118 4 247 3 l235 -1 5 -160z m1430 27 c0 -94 -4 -142 -12 -150 -9 -9 -161
-12 -625 -12 -595 0 -613 1 -623 19 -11 21 -14 263 -4 274 4 4 290 7 635 7
l629 0 0 -138z m-1690 -803 c147 -51 307 -79 654 -117 l69 -7 12 -47 c22 -89
94 -173 183 -215 182 -86 400 15 457 212 l16 53 77 6 c314 27 576 80 745 151
16 7 18 0 15 -96 l-3 -104 -135 -37 c-74 -20 -277 -74 -450 -120 -340 -90
-363 -100 -363 -157 0 -53 26 -68 194 -114 l154 -42 0 -100 0 -100 -820 0
c-894 0 -864 -2 -901 58 -18 30 -19 57 -22 426 -3 375 -2 393 15 386 10 -4 56
-20 103 -36z m-229 -872 c22 -34 29 -67 43 -177 30 -246 90 -466 188 -688 28
-62 49 -114 47 -115 -2 -2 -49 -20 -104 -41 -55 -22 -151 -64 -213 -94 -131
-64 -115 -69 -214 61 -164 215 -282 459 -344 712 -24 98 -54 297 -54 356 l0
29 313 0 312 0 26 -43z m720 -127 l489 0 0 -349 0 -349 -77 -6 c-206 -15 -391
-39 -523 -66 -80 -16 -151 -30 -157 -30 -24 0 -113 201 -169 384 -33 107 -84
351 -84 403 0 19 4 24 16 19 9 -3 236 -6 505 -6z m1139 -108 c0 -95 3 -111 20
-130 24 -25 13 -22 243 -66 98 -18 180 -36 183 -39 11 -11 -72 -249 -133 -379
-40 -87 -40 -87 -132 -64 -97 26 -291 56 -421 67 -69 5 -153 12 -187 15 l-63
6 0 349 0 349 245 0 245 0 0 -108z m2012 -144 c2 -43 1 -85 -2 -91 -3 -7 -24
-12 -48 -12 l-42 0 0 91 c0 85 2 92 23 101 14 7 29 7 44 0 19 -8 22 -19 25
-89z m-742 -98 c0 -6 -18 -56 -41 -113 -83 -210 -204 -410 -336 -556 l-22 -25
-128 62 c-70 33 -166 75 -212 92 -46 17 -87 33 -91 35 -4 3 14 53 40 112 26
60 67 168 91 241 l42 133 61 -8 c106 -14 323 -6 436 15 122 23 160 26 160 12z
m-1920 -905 c0 -217 -3 -395 -8 -395 -19 0 -256 195 -351 290 -98 97 -270 310
-306 379 -18 35 -25 31 115 60 135 28 364 55 498 59 l52 2 0 -395z m485 369
c125 -15 321 -52 343 -63 9 -5 -2 -28 -39 -81 -152 -221 -373 -447 -569 -580
l-60 -41 0 397 0 396 103 -6 c56 -4 156 -14 222 -22z m-1268 -206 c93 -145
209 -282 358 -426 91 -88 130 -132 117 -132 -26 0 -213 53 -293 84 -176 66
-346 159 -481 263 -82 64 -158 130 -158 139 0 13 353 163 386 164 6 0 38 -42
71 -92z m1923 45 c130 -49 252 -111 247 -126 -6 -20 -136 -126 -232 -189 -106
-71 -274 -157 -395 -203 -98 -37 -284 -88 -306 -83 -10 2 11 25 55 61 138 115
316 320 435 501 65 99 46 95 196 39z"/>
</g>
</svg>
